<?xml version="1.0" encoding="UTF-8" standalone="no"?> <!-- Created with Vectornator for iOS (http://vectornator.io/) --><!DOCTYPE svg PUBLIC "-//W3C//DTD SVG 1.1//EN" "http://www.w3.org/Graphics/SVG/1.1/DTD/svg11.dtd">
<svg height="100%" style="fill-rule:nonzero;clip-rule:evenodd;stroke-linecap:round;stroke-linejoin:round;" xmlns:xlink="http://www.w3.org/1999/xlink" xmlns="http://www.w3.org/2000/svg" xml:space="preserve" width="100%" xmlns:vectornator="http://vectornator.io" version="1.1" viewBox="0 0 1559.25 1757.7">
<metadata>
<vectornator:setting key="DimensionsVisible" value="1"/>
<vectornator:setting key="PencilOnly" value="0"/>
<vectornator:setting key="SnapToPoints" value="0"/>
<vectornator:setting key="OutlineMode" value="0"/>
<vectornator:setting key="CMYKEnabledKey" value="0"/>
<vectornator:setting key="RulersVisible" value="1"/>
<vectornator:setting key="SnapToEdges" value="0"/>
<vectornator:setting key="GuidesVisible" value="1"/>
<vectornator:setting key="DisplayWhiteBackground" value="0"/>
<vectornator:setting key="doHistoryDisabled" value="0"/>
<vectornator:setting key="SnapToGuides" value="1"/>
<vectornator:setting key="TimeLapseWatermarkDisabled" value="0"/>
<vectornator:setting key="Units" value="Millimeters"/>
<vectornator:setting key="DynamicGuides" value="0"/>
<vectornator:setting key="IsolateActiveLayer" value="0"/>
<vectornator:setting key="SnapToGrid" value="0"/>
</metadata>
<defs>
<linearGradient y1="1864.39" id="LinearGradient" x1="1477.53" y2="1864.39" x2="2235.5" gradientUnits="userSpaceOnUse" gradientTransform="matrix(0.957672 0 0 0.957672 -955.33 -222.935)">
<stop stop-color="#0049ff" offset="0"/>
<stop stop-color="#81b5ff" offset="0.657767"/>
<stop stop-color="#77d0ff" offset="1"/>
</linearGradient>
<path id="TextPath" d="M239.799+459.173C537.934+167.856+1028.49+173.665+1326.83+465.174C1625.16+756.684+1621.49+1219.13+1323.35+1510.44C1025.21+1801.76+542.203+1790.12+243.867+1498.61C-54.4697+1207.1-58.3373+750.489+239.799+459.173ZM239.799+459.173C537.934+167.856+1028.49+173.665+1326.83+465.174C1625.16+756.684+1621.49+1219.13+1323.35+1510.44C1025.21+1801.76+542.203+1790.12+243.867+1498.61C-54.4697+1207.1-58.3373+750.489+239.799+459.173Z" transform="matrix(0.716548 -0.714669 0.733322 0.731406 516.179 1112.32)"/>
<path id="TextPath_2" d="M11.646+1160.58C-71.2253+736.772+213.42+324.307+636.433+242.556C1059.45+160.805+1458.65+435.459+1541.52+859.263C1624.4+1283.07+1338.99+1685.71+915.977+1767.46C492.964+1849.21+94.5173+1584.38+11.646+1160.58ZM11.646+1160.58C-71.2253+736.772+213.42+324.307+636.433+242.556C1059.45+160.805+1458.65+435.459+1541.52+859.263C1624.4+1283.07+1338.99+1685.71+915.977+1767.46C492.964+1849.21+94.5173+1584.38+11.646+1160.58Z" transform="matrix(0.973904 0.187248 -0.190439 0.968896 1234.4 150.129)"/>
<path id="TextPath_3" d="M41.4691+1265.34C-99.5778+857.192+124.893+409.126+532.412+269.298C939.931+129.471+1373.48+345.893+1514.52+754.04C1655.57+1162.19+1428.98+1600.63+1021.46+1740.46C613.943+1880.29+182.516+1673.48+41.4691+1265.34ZM41.4691+1265.34C-99.5778+857.192+124.893+409.126+532.412+269.298C939.931+129.471+1373.48+345.893+1514.52+754.04C1655.57+1162.19+1428.98+1600.63+1021.46+1740.46C613.943+1880.29+182.516+1673.48+41.4691+1265.34Z" transform="matrix(0.937922 0.32027 -0.324127 0.933406 1395.96 82.4309)"/>
</defs>
<g id="Coldish temp" vectornator:layerName="Coldish temp">
<path d="M202.793+1457.36C202.793+1457.36+201.116+1418.69+226.914+1401.31C236.889+1394.59+253.469+1433.01+272.021+1431.46C306.338+1428.6+269.973+1376.49+288.177+1370.74C315.283+1362.18+288.084+1340.88+304.585+1321.39C307.52+1317.92+338.113+1370.89+347.569+1358.41C360.626+1341.18+344.701+1326.41+339.983+1308.01C335.264+1289.61+299.964+1283.97+315.525+1270.06C321.034+1265.13+360.29+1296.63+371.262+1286.41C386.59+1272.14+364.944+1245.13+410.295+1251.43C449.433+1256.87+398.71+1281.43+400.326+1307.12C451.226+1322.26+436.661+1294.87+462.779+1261.4C475.48+1245.13+485.559+1265.84+500.604+1258.9C511.702+1253.78+519.044+1220.32+526.958+1216.24C546.074+1206.41+551.829+1257.07+585.973+1186.86C603.161+1151.51+589.56+1238.38+649.674+1214.18C747.474+1174.82+652.301+1275.99+699.638+1283.14C758.121+1291.97+672.893+1154.27+770.631+1183.41C774.898+1184.68+808.003+1185.84+818.83+1168.25C829.657+1150.66+873.769+1156.68+858.187+1190.8C829.856+1252.83+956.924+1193.15+962.311+1215.38C977.612+1278.51+1018.9+1255.61+1023.12+1269.4C1036.09+1311.83+1058.87+1283.35+1069.77+1281.98C1101.95+1277.92+1129.41+1314.82+1136.77+1317.77C1162.93+1328.26+1191.24+1326.61+1202.94+1334.04C1221.02+1345.53+1194.29+1356.01+1185.39+1359.54C1148.96+1374.01+1218.73+1387.17+1241.5+1382C1264.69+1376.74+1268.36+1423.74+1267.67+1428.46C1262.32+1465.18+1302.52+1442.36+1306.72+1440.39C1332.27+1428.45+1326.63+1488.13+1326.63+1488.13C1326.63+1488.13+1105.15+1745.77+728.039+1726.25C370.393+1707.74+202.793+1457.36+202.793+1457.36Z" opacity="1" fill="#0075ff"/>
</g>
<g id="Coldish temp copy" vectornator:layerName="Coldish temp copy">
<path d="M37.6097+1028.67C37.6097+1028.67+44.8065+1156.5+86.1024+1263.67C127.398+1370.84+202.793+1457.36+202.793+1457.36C202.793+1457.36+201.116+1418.69+226.914+1401.31C236.889+1394.59+253.469+1433.01+272.021+1431.46C306.338+1428.6+269.973+1376.49+288.177+1370.74C315.283+1362.18+288.084+1340.88+304.585+1321.39C307.52+1317.92+338.113+1370.89+347.569+1358.41C360.626+1341.18+344.701+1326.41+339.983+1308.01C335.264+1289.61+299.964+1283.97+315.525+1270.06C321.034+1265.13+360.29+1296.63+371.262+1286.41C386.59+1272.14+364.944+1245.13+410.295+1251.43C449.433+1256.87+398.71+1281.43+400.326+1307.12C451.226+1322.26+436.661+1294.87+462.779+1261.4C475.48+1245.13+485.559+1265.84+500.604+1258.9C511.702+1253.78+519.044+1220.32+526.958+1216.24C546.074+1206.41+551.829+1257.07+585.973+1186.86C603.161+1151.51+589.56+1238.38+649.674+1214.18C747.474+1174.82+652.301+1275.99+699.638+1283.14C758.121+1291.97+672.893+1154.27+770.631+1183.41C774.898+1184.68+808.003+1185.84+818.83+1168.25C829.657+1150.66+873.769+1156.68+858.187+1190.8C829.856+1252.83+956.924+1193.15+962.311+1215.38C977.612+1278.51+1018.9+1255.61+1023.12+1269.4C1036.09+1311.83+1058.87+1283.35+1069.77+1281.98C1101.95+1277.92+1129.41+1314.82+1136.77+1317.77C1162.93+1328.26+1191.24+1326.61+1202.94+1334.04C1221.02+1345.53+1194.29+1356.01+1185.39+1359.54C1148.96+1374.01+1218.73+1387.17+1241.5+1382C1264.69+1376.74+1268.36+1423.74+1267.67+1428.46C1262.32+1465.18+1302.52+1442.36+1306.72+1440.39C1332.27+1428.45+1326.63+1488.13+1326.63+1488.13C1326.63+1488.13+1378.2+1429.44+1416.61+1365.76C1455.01+1302.08+1480.24+1233.42+1480.24+1233.42C1480.24+1233.42+1458.02+1212.43+1448.85+1245.87C1439.69+1279.31+1400.37+1256.95+1377.74+1247.88C1345.18+1234.84+1289.35+1308.94+1275.47+1265.5C1274.47+1262.37+1306.02+1238+1309.83+1231.95C1322.83+1211.3+1340.22+1161.24+1286.34+1163.68C1223.5+1166.52+1248.59+1220.02+1204.89+1216.19C1162.44+1212.47+1174.69+1179.23+1165.2+1167.85C1141.97+1139.99+1113.21+1176.49+1108.12+1179.6C1082.71+1195.13+1046.24+1167.09+1044.08+1171.1C1033.5+1190.7+982.567+1144.24+978.889+1140.48C960.646+1121.88+925.841+1178.3+904.508+1166.49C882.277+1154.18+952.933+1118.53+895.684+1096.01C880.654+1090.1+872.426+1077.85+857.033+1088.73C841.641+1099.61+819.496+1072.3+810.667+1083.85C794.805+1104.59+771.605+1077.66+761.85+1077.18C735.082+1075.86+766.084+1119.52+738.213+1119.87C702.401+1120.32+760.241+1060.53+703.225+1050.92C685.294+1047.9+656.834+1086.43+640.879+1066.78C622.488+1044.14+571.123+1065.24+523.395+1079.71C481.543+1092.41+417.565+1244.5+375.206+1216.87C362.455+1208.55+385.553+1195.46+379.087+1181.94C372.517+1168.21+339.429+1135.07+337.095+1109.25C332.462+1058+291.902+1073.73+280.472+1055.71C254.047+1014.06+243.117+1079.91+214.347+1064.29C166.73+1038.44+177.372+1103.45+151.708+1109.35C116.705+1117.39+104.502+1058.29+82.0831+1060.44C59.6643+1062.59+37.6097+1028.67+37.6097+1028.67Z" opacity="1" fill="#5cb0ff"/>
</g>
<g id="Coldish temp copy_2" vectornator:layerName="Coldish temp copy">
<path d="M37.6097+1028.67C37.6097+1028.67+37.0933+992.784+38.8796+957.55C40.666+922.316+44.7552+887.728+44.7552+887.728C44.7552+887.728+73.3423+861.378+94.024+852.83C105.922+847.912+93.3397+920.574+120.027+914.416C146.714+908.257+173.945+871.574+192.185+874.567C204.44+876.577+199.944+856.397+212.14+859.097C391.081+898.705+1251.25+913.059+1272.61+931.14C1287.2+943.482+1286.73+961.226+1255.64+997.309C1237.27+1018.64+1220.69+1046.04+1223.48+1076.66C1227.04+1115.73+1192.2+1134.84+1226.46+1141.05C1260.72+1147.27+1243.93+1086.02+1272.34+1063.04C1300.75+1040.06+1301.25+1066.77+1316.9+1045.47C1332.01+1024.89+1331.46+988.56+1342.88+974.162C1359.52+953.179+1385.94+958.579+1393.51+959.763C1413.15+962.834+1435.39+938.642+1449.29+952.9C1468.03+972.133+1455.85+986.757+1473.45+1002.21C1493.67+1019.97+1517.34+983.475+1517.34+983.475C1517.34+983.475+1529.57+1010.02+1511.27+1100.55C1489.81+1206.68+1480.24+1233.42+1480.24+1233.42C1480.24+1233.42+1458.02+1212.43+1448.85+1245.87C1439.69+1279.31+1400.37+1256.95+1377.74+1247.88C1345.18+1234.84+1289.35+1308.94+1275.47+1265.5C1274.47+1262.37+1306.02+1238+1309.83+1231.95C1322.83+1211.3+1340.22+1161.24+1286.34+1163.68C1223.5+1166.52+1248.59+1220.02+1204.89+1216.19C1162.44+1212.47+1174.69+1179.23+1165.2+1167.85C1141.97+1139.99+1113.21+1176.49+1108.12+1179.6C1082.71+1195.13+1046.24+1167.09+1044.08+1171.1C1033.5+1190.7+982.567+1144.24+978.889+1140.48C960.646+1121.88+925.841+1178.3+904.508+1166.49C882.277+1154.18+952.933+1118.53+895.684+1096.01C880.654+1090.1+872.426+1077.85+857.033+1088.73C841.641+1099.61+819.496+1072.3+810.667+1083.85C794.805+1104.59+771.605+1077.66+761.85+1077.18C735.082+1075.86+766.084+1119.52+738.213+1119.87C702.401+1120.32+760.241+1060.53+703.225+1050.92C685.294+1047.9+656.834+1086.43+640.879+1066.78C622.488+1044.14+571.123+1065.24+523.395+1079.71C481.543+1092.41+417.565+1244.5+375.206+1216.87C362.455+1208.55+385.553+1195.46+379.087+1181.94C372.517+1168.21+339.429+1135.07+337.095+1109.25C332.462+1058+291.902+1073.73+280.472+1055.71C254.047+1014.06+243.117+1079.91+214.347+1064.29C166.73+1038.44+177.372+1103.45+151.708+1109.35C116.705+1117.39+104.502+1058.29+82.0831+1060.44C59.6643+1062.59+37.6097+1028.67+37.6097+1028.67Z" opacity="1" fill="#cc97f0"/>
</g>
<g id="Medium temp." vectornator:layerName="Medium temp.">
<path d="M85.4444+733.287C78.2821+758.604+70.6661+770.425+60.4938+809.035C50.3215+847.645+44.7552+887.728+44.7552+887.728C44.7552+887.728+73.3423+861.378+94.024+852.83C105.922+847.912+93.3397+920.574+120.027+914.416C146.714+908.257+173.945+871.574+192.185+874.567C204.44+876.577+199.944+856.397+212.14+859.097C391.081+898.705+1251.25+913.059+1272.61+931.14C1287.2+943.482+1286.73+961.226+1255.64+997.309C1237.27+1018.64+1220.69+1046.04+1223.48+1076.66C1227.04+1115.73+1192.2+1134.84+1226.46+1141.05C1260.72+1147.27+1243.93+1086.02+1272.34+1063.04C1300.75+1040.06+1301.25+1066.77+1316.9+1045.47C1332.01+1024.89+1331.46+988.56+1342.88+974.162C1359.52+953.179+1385.94+958.579+1393.51+959.763C1413.15+962.834+1435.39+938.642+1449.29+952.9C1468.03+972.133+1455.85+986.757+1473.45+1002.21C1493.67+1019.97+1517.34+983.475+1517.34+983.475C1517.34+983.475+1522.52+952.745+1511.99+880.089C1501.47+807.434+1484.93+771.983+1471.29+735.685C1465.24+719.571+1442.68+733.862+1442.68+733.862C1442.68+733.862+1419.15+726.283+1406.36+713.893C1392.63+700.601+1411.64+680.356+1389.73+679.878C1367.81+679.4+1379.12+666.894+1364.32+665.118C1329.26+660.913+1352.66+730.678+1294.9+684.087C1229.68+631.482+1333.71+629.253+1252.99+600.765C1231.5+593.182+1215.26+611.682+1221.63+626.364C1228.01+641.046+1210.32+642.46+1190.2+638.094C1146.17+628.542+1205.5+569.323+1132.75+593.747C1098.23+605.337+490.424+573.132+448.226+580.659C375.373+593.655+425.879+538.43+398.914+536.687C371.949+534.943+361.36+567.448+340.367+573.684C258.968+597.866+308.081+623.265+274.763+625.856C247.634+627.966+260.75+571.822+237.046+573.619C186.543+577.446+209.339+631.382+176.977+651.988C152.855+667.346+132.774+677.838+120.708+727.594" opacity="1" fill="#f0c094"/>
</g>
<g id="High temp. copy" vectornator:layerName="High temp. copy">
<path d="M85.4444+733.287C158.8+544.508+374.694+270.065+791.502+265.686C1043.89+263.034+1343.67+427.406+1471.29+735.685C1477.87+751.589+1442.68+733.862+1442.68+733.862C1442.68+733.862+1419.15+726.283+1406.36+713.893C1392.63+700.601+1411.64+680.356+1389.73+679.878C1367.81+679.4+1379.12+666.894+1364.32+665.118C1329.26+660.913+1352.66+730.678+1294.9+684.087C1229.68+631.482+1333.71+629.253+1252.99+600.765C1231.5+593.182+1215.26+611.682+1221.63+626.364C1228.01+641.046+1210.32+642.46+1190.2+638.094C1146.17+628.542+1205.5+569.323+1132.75+593.747C1098.23+605.337+490.424+573.132+448.226+580.659C375.373+593.655+425.879+538.43+398.914+536.687C371.949+534.943+361.36+567.448+340.367+573.684C258.968+597.866+308.081+623.265+274.763+625.856C247.634+627.966+260.75+571.822+237.046+573.619C186.543+577.446+209.339+631.382+176.977+651.988C152.855+667.346+132.774+677.838+120.708+727.594" opacity="1" fill="#ff6363"/>
</g>
<g id="Layer 6" vectornator:layerName="Layer 6">
<path stroke="#000000" stroke-opacity="0" stroke-width="2.54587" d="M459.174+1583.07L478.012+1590.05L521.379+1553.68L522.51+1529.51L459.174+1583.07Z" fill="#ffffff" stroke-linecap="butt" opacity="1" stroke-linejoin="round"/>
<path stroke="#000000" stroke-opacity="0" stroke-width="2.54587" d="M519.917+1530.82L538.083+1541.76L625.557+1509.89L599.477+1495.9" fill="#ffffff" stroke-linecap="butt" opacity="1" stroke-linejoin="round"/>
<path stroke="#000000" stroke-opacity="0" stroke-width="2.54587" d="M652.139+1431.42L735.529+1397.68L766.313+1413.27L678.073+1442.66" fill="#ffffff" stroke-linecap="butt" opacity="1" stroke-linejoin="round"/>
<path stroke="#000000" stroke-opacity="0" stroke-width="2.54587" d="M715.68+1594.5L755.946+1519.6L778.575+1503.81L817.122+1513.85L785.792+1546.72L760.565+1560.36L761.724+1576.25L742.845+1598.68" fill="#b0def3" stroke-linecap="butt" opacity="1" stroke-linejoin="round"/>
<path stroke="#000000" stroke-opacity="0" stroke-width="2.54587" d="M834.552+1616.84L856.597+1621.6L873.31+1643.76L876.135+1595.04L842.324+1583" fill="#b0def3" stroke-linecap="butt" opacity="1" stroke-linejoin="round"/>
<path stroke="#000000" stroke-opacity="0" stroke-width="2.54587" d="M919.084+1522.08L1007.97+1447.17L988.11+1525.55L946.611+1561.11" fill="#b0def3" stroke-linecap="butt" opacity="1" stroke-linejoin="round"/>
<path stroke="#000000" stroke-opacity="0" stroke-width="2.54587" d="M465.174+1656.63L459.745+1584.37L477.99+1590.16L484.206+1663.23" fill="#b0def3" stroke-linecap="butt" opacity="1" stroke-linejoin="round"/>
<path stroke="#000000" stroke-opacity="0" stroke-width="2.54587" d="M518.053+1600.77L522.301+1533L538.761+1542.6L528.876+1602.14" fill="#b0def3" stroke-linecap="butt" opacity="1" stroke-linejoin="round"/>
<path stroke="#000000" stroke-opacity="0" stroke-width="2.54587" d="M600.938+1497.49L619.008+1456.62L645.128+1459.51L625.113+1510.2" fill="#b0def3" stroke-linecap="butt" opacity="1" stroke-linejoin="round"/>
<path stroke="#000000" stroke-opacity="0" stroke-width="2.54587" d="M669.769+1465.65L678.309+1442.14L766.462+1414.07L757.494+1461.7L752.94+1463.6L707.565+1499.77" fill="#b0def3" stroke-linecap="butt" opacity="1" stroke-linejoin="round"/>
<path stroke="#000000" stroke-opacity="0" stroke-width="2.54587" d="M817.859+1514.58L842.906+1470.9L877.435+1456.52L892.355+1471.02L847.586+1530.54" fill="#b0def3" stroke-linecap="butt" opacity="1" stroke-linejoin="round"/>
<path stroke="#000000" stroke-opacity="0" stroke-width="2.54587" d="M753.737+1463.48L789.654+1445L819.022+1448.17L818.401+1433.87L862.417+1410.34L879.703+1422.51L836.167+1452.28L806.138+1473.9" fill="#ffffff" stroke-linecap="butt" opacity="1" stroke-linejoin="round"/>
<path stroke="#000000" stroke-opacity="0" stroke-width="2.54587" d="M878.032+1456.71L973.306+1395.83L992.402+1412.72L892.635+1471" fill="#ffffff" stroke-linecap="butt" opacity="1" stroke-linejoin="round"/>
<path stroke="#000000" stroke-opacity="0" stroke-width="2.54587" d="M842.197+1583.2L893.857+1509.77L918.708+1521.96L876.406+1595.26" fill="#ffffff" stroke-linecap="butt" opacity="1" stroke-linejoin="round"/>
<path stroke="#000000" stroke-opacity="0" stroke-width="2.54587" d="M1007.08+1447.99L1059.39+1422.57L1050.84+1446.31" fill="#ffffff" stroke-linecap="butt" opacity="1" stroke-linejoin="round"/>
<path stroke="#000000" stroke-opacity="0" stroke-width="2.54587" d="M946.367+1594.18L1009.52+1565.76L1051.23+1572.08L1008.23+1604.4" fill="#ffffff" stroke-linecap="butt" opacity="1" stroke-linejoin="round"/>
<path stroke="#000000" stroke-opacity="0" stroke-width="2.54587" d="M775.593+1648.85L812.318+1614.62L835.247+1616.96L855.89+1621.21L811.637+1656.94" fill="#ffffff" stroke-linecap="butt" opacity="1" stroke-linejoin="round"/>
<path stroke="#000000" stroke-opacity="0" stroke-width="2.54587" d="M631.733+1708.83L661.692+1662.73L695.869+1651.52L693.289+1693.63L659.595+1714.59" fill="#b0def3" stroke-linecap="butt" opacity="1" stroke-linejoin="round"/>
<path stroke="#000000" stroke-opacity="0" stroke-width="2.54587" d="M1044.99+1494.66L1094.51+1423.47L1118.53+1458.24L1084.54+1497.79" fill="#b0def3" stroke-linecap="butt" opacity="1" stroke-linejoin="round"/>
<path stroke="#000000" stroke-opacity="0" stroke-width="2.54587" d="M1051.4+1445.98L1059.7+1422.58L1094.64+1423.49" fill="#b0def3" stroke-linecap="butt" opacity="1" stroke-linejoin="round"/>
<path stroke="#000000" stroke-opacity="0" stroke-width="2.54587" d="M1084.14+1498.81L1122.03+1523.65L1079.02+1555.39" fill="#b0def3" stroke-linecap="butt" opacity="1" stroke-linejoin="round"/>
</g>
<g id="Layer 7" vectornator:layerName="Layer 7">
<path stroke="#000000" stroke-opacity="0" stroke-width="2.54587" d="M655.988+1605.31L717.019+1540.25L756.548+1518.92L715.006+1595.64" fill="#c7c7c7" stroke-linecap="butt" opacity="1" stroke-linejoin="round"/>
<path stroke="#000000" stroke-opacity="0" stroke-width="2.54587" d="M760.981+1576.89L760.384+1560.75L786.695+1545.69L779.318+1572.83" fill="#c7c7c7" stroke-linecap="butt" opacity="1" stroke-linejoin="round"/>
<path stroke="#000000" stroke-opacity="0" stroke-width="2.54587" d="M737.025+1397.41L782.242+1395.38L818.852+1404.72L766.732+1413.1" fill="#c7c7c7" stroke-linecap="butt" opacity="1" stroke-linejoin="round"/>
<path stroke="#000000" stroke-opacity="0" stroke-width="2.54587" d="M863.313+1409.81L966.645+1398.11L881.008+1422.09" fill="#c7c7c7" stroke-linecap="butt" opacity="1" stroke-linejoin="round"/>
<path stroke="#000000" stroke-opacity="0" stroke-width="2.54587" d="M921.474+1633.03L969.999+1632.52L1025.9+1650.4L967.28+1668.78L929.996+1661.99" fill="#c7c7c7" stroke-linecap="butt" opacity="1" stroke-linejoin="round"/>
<path stroke="#000000" stroke-opacity="0" stroke-width="2.54587" d="M520.627+1554.82L478.18+1589.84L542.07+1626.46L518.303+1600.86" fill="#67c5f1" stroke-linecap="butt" opacity="1" stroke-linejoin="round"/>
<path stroke="#000000" stroke-opacity="0" stroke-width="2.54587" d="M539.049+1541.6L529.005+1603.26L591.136+1593.92" fill="#67c5f1" stroke-linecap="butt" opacity="1" stroke-linejoin="round"/>
<path stroke="#000000" stroke-opacity="0" stroke-width="2.54587" d="M651.367+1431.86L678.951+1442.22L669.585+1465.84L707.219+1499.87L716.863+1540.73L657.042+1546.26L624.812+1510.67L645.371+1459.78" fill="#67c5f1" stroke-linecap="butt" opacity="1" stroke-linejoin="round"/>
<path stroke="#000000" stroke-opacity="0" stroke-width="2.54587" d="M592.258+1593.36L544.036+1625.89L592.717+1699.88L628.798+1707.56L617.916+1650.06" fill="#67c5f1" stroke-linecap="butt" opacity="1" stroke-linejoin="round"/>
<path stroke="#000000" stroke-opacity="0" stroke-width="2.54587" d="M693.872+1693.89L696.908+1651.1L718.304+1642.82L713.472+1684.5" fill="#67c5f1" stroke-linecap="butt" opacity="1" stroke-linejoin="round"/>
<path stroke="#000000" stroke-opacity="0" stroke-width="2.54587" d="M641.518+1658.5L637.467+1648.96L655.655+1606.24L661.739+1662.18" fill="#67c5f1" stroke-linecap="butt" opacity="1" stroke-linejoin="round"/>
<path stroke="#000000" stroke-opacity="0" stroke-width="2.54587" d="M748.886+1694.89L761.149+1647.79L775.26+1648.86L801.536+1692.56" fill="#67c5f1" stroke-linecap="butt" opacity="1" stroke-linejoin="round"/>
<path stroke="#000000" stroke-opacity="0" stroke-width="2.54587" d="M757.632+1461.82L767.271+1413.38L818.731+1404.99L789.681+1444.98" fill="#67c5f1" stroke-linecap="butt" opacity="1" stroke-linejoin="round"/>
<path stroke="#000000" stroke-opacity="0" stroke-width="2.54587" d="M817.983+1513.69L805.778+1473.71L836.791+1452.29L842.421+1471.19" fill="#67c5f1" stroke-linecap="butt" opacity="1" stroke-linejoin="round"/>
<path stroke="#000000" stroke-opacity="0" stroke-width="2.54587" d="M779.523+1609.74L761.2+1577.08L779.425+1572.61L786.767+1545.76L817.662+1513.69L841.973+1583.35" fill="#67c5f1" stroke-linecap="butt" opacity="1" stroke-linejoin="round"/>
<path stroke="#000000" stroke-opacity="0" stroke-width="2.54587" d="M828.224+1680.65L811.374+1657.2L856.386+1621.35L872.56+1644.36" fill="#67c5f1" stroke-linecap="butt" opacity="1" stroke-linejoin="round"/>
<path stroke="#000000" stroke-opacity="0" stroke-width="2.54587" d="M921.993+1633.6L875.702+1595.38L918.603+1522.11L945.621+1560.63L945.781+1592.49" fill="#67c5f1" stroke-linecap="butt" opacity="1" stroke-linejoin="round"/>
<path stroke="#000000" stroke-opacity="0" stroke-width="2.54587" d="M930.529+1707.35L898.797+1678.67L929.83+1661.81L967.035+1668.82L986.218+1693.11" fill="#67c5f1" stroke-linecap="butt" opacity="1" stroke-linejoin="round"/>
<path stroke="#000000" stroke-opacity="0" stroke-width="2.54587" d="M878.07+1456.45L881.205+1422.13L973.183+1396.72" fill="#67c5f1" stroke-linecap="butt" opacity="1" stroke-linejoin="round"/>
<path stroke="#000000" stroke-opacity="0" stroke-width="2.54587" d="M918.459+1521.61L892.816+1470.71L992.915+1412.77L1008.22+1446.23" fill="#67c5f1" stroke-linecap="butt" opacity="1" stroke-linejoin="round"/>
<path stroke="#000000" stroke-opacity="0" stroke-width="2.54587" d="M988.562+1525.1L1007.62+1448.99L1045.11+1495.41" fill="#67c5f1" stroke-linecap="butt" opacity="1" stroke-linejoin="round"/>
<path stroke="#000000" stroke-opacity="0" stroke-width="2.54587" d="M1025.22+1650.61L1008.28+1603.9L1051.69+1572.46L1089.06+1606.45" fill="#67c5f1" stroke-linecap="butt" opacity="1" stroke-linejoin="round"/>
<path stroke="#000000" stroke-opacity="0" stroke-width="2.54587" d="M1084.18+1498.37L1118.7+1458.34L1192.04+1533.9L1122.25+1522.83" fill="#67c5f1" stroke-linecap="butt" opacity="1" stroke-linejoin="round"/>
</g>
<g id="Layer 8" vectornator:layerName="Layer 8">
<path stroke="#000000" stroke-opacity="0" stroke-width="2.54587" d="M591.469+1593.24L539.276+1541.56L625.209+1510.05L656.184+1546.08" fill="#118cc8" stroke-linecap="butt" opacity="1" stroke-linejoin="round"/>
<path stroke="#000000" stroke-opacity="0" stroke-width="2.54587" d="M718.676+1643.21L715.284+1595.46L742.695+1598.93L760.901+1647.72" fill="#118cc8" stroke-linecap="butt" opacity="1" stroke-linejoin="round"/>
<path stroke="#000000" stroke-opacity="0" stroke-width="2.54587" d="M716.353+1540.6L706.849+1500.92L753.96+1463.23L756.477+1518.82" fill="#118cc8" stroke-linecap="butt" opacity="1" stroke-linejoin="round"/>
<path stroke="#000000" stroke-opacity="0" stroke-width="2.54587" d="M790.404+1445.34L817.581+1406.27L818.902+1448.43" fill="#118cc8" stroke-linecap="butt" opacity="1" stroke-linejoin="round"/>
<path stroke="#000000" stroke-opacity="0" stroke-width="2.54587" d="M842.802+1471.02L837.398+1451.97L880.682+1422.84L878.262+1456.15" fill="#118cc8" stroke-linecap="butt" opacity="1" stroke-linejoin="round"/>
<path stroke="#000000" stroke-opacity="0" stroke-width="2.54587" d="M842.919+1582.24L847.454+1530.97L892.667+1472.73L893.973+1510.17" fill="#118cc8" stroke-linecap="butt" opacity="1" stroke-linejoin="round"/>
<path stroke="#000000" stroke-opacity="0" stroke-width="2.54587" d="M946.536+1593.44L946.589+1560.62L988.747+1525.34L1009.31+1565.54" fill="#118cc8" stroke-linecap="butt" opacity="1" stroke-linejoin="round"/>
<path stroke="#000000" stroke-opacity="0" stroke-width="2.54587" d="M1052.25+1571.68L1044.85+1494.95L1084.48+1498.27L1078.6+1554.41" fill="#118cc8" stroke-linecap="butt" opacity="1" stroke-linejoin="round"/>
<path stroke="#000000" stroke-opacity="0" stroke-width="2.54587" d="M969.958+1631.9L947.061+1594.05L1008.14+1604.38L1025.09+1650.57" fill="#118cc8" stroke-linecap="butt" opacity="1" stroke-linejoin="round"/>
<path stroke="#000000" stroke-opacity="0" stroke-width="2.54587" d="M1044.76+1495.05L1007.92+1448.05L1051.06+1446.24" fill="#118cc8" stroke-linecap="butt" opacity="1" stroke-linejoin="round"/>
<path stroke="#000000" stroke-opacity="0" stroke-width="2.54587" d="M1074.68+1628.13L1089.35+1606.85L1093.02+1574.89L1105.29+1621.02" fill="#118cc8" stroke-linecap="butt" opacity="1" stroke-linejoin="round"/>
<path stroke="#000000" stroke-opacity="0" stroke-width="2.54587" d="M775.207+1649.85L778.96+1609.81L842.512+1583.08L834.949+1617.43L811.02+1614.53" fill="#118cc8" stroke-linecap="butt" opacity="1" stroke-linejoin="round"/>
<path stroke="#000000" stroke-opacity="0" stroke-width="2.54587" d="M833.879+1722.24L828.033+1681.63L872.873+1643.92L899.443+1677.66L873.361+1719.05" fill="#118cc8" stroke-linecap="butt" opacity="1" stroke-linejoin="round"/>
<path stroke="#000000" stroke-opacity="0" stroke-width="2.54587" d="M775.934+1721.75L750.16+1695.19L801.002+1693.23" fill="#118cc8" stroke-linecap="butt" opacity="1" stroke-linejoin="round"/>
<path stroke="#000000" stroke-opacity="0" stroke-width="2.54587" d="M735.622+1723.71L694.055+1694.11L713.413+1684.29" fill="#118cc8" stroke-linecap="butt" opacity="1" stroke-linejoin="round"/>
<path stroke="#000000" stroke-opacity="0" stroke-width="2.54587" d="M617.199+1652.01L591.627+1593.16L637.72+1648.9L641.043+1658.17" fill="#118cc8" stroke-linecap="butt" opacity="1" stroke-linejoin="round"/>
<path stroke="#000000" stroke-opacity="0" stroke-width="2.54587" d="M565.781+1699.87L544.195+1629.02L594.247+1704.49" fill="#118cc8" stroke-linecap="butt" opacity="1" stroke-linejoin="round"/>
<path stroke="#000000" stroke-opacity="0" stroke-width="2.54587" d="M484.48+1664.31L477.613+1589.16L498.6+1670.11" fill="#5d9dc9" stroke-linecap="butt" opacity="1" stroke-linejoin="round"/>
<path stroke="#000000" stroke-opacity="0" stroke-width="2.54587" d="M526.743+1658.31L542.991+1627.46L540.863+1659.86" fill="#5d9dc9" stroke-linecap="butt" opacity="1" stroke-linejoin="round"/>
<path stroke="#000000" stroke-opacity="0" stroke-width="2.54587" d="M529.838+1602.99L590.476+1593.9L543.764+1626.01" fill="#5d9dc9" stroke-linecap="butt" opacity="1" stroke-linejoin="round"/>
<path stroke="#000000" stroke-opacity="0" stroke-width="2.54587" d="M591.914+1593.97L638.063+1649.3L655.864+1606.22" fill="#5d9dc9" stroke-linecap="butt" opacity="1" stroke-linejoin="round"/>
<path stroke="#000000" stroke-opacity="0" stroke-width="2.54587" d="M661.95+1661.84L656.219+1605.5L714.312+1595.45L695.634+1650.99" fill="#5d9dc9" stroke-linecap="butt" opacity="1" stroke-linejoin="round"/>
<path stroke="#000000" stroke-opacity="0" stroke-width="2.54587" d="M661.065+1713.9L693.983+1693.69L678.442+1716.74" fill="#5d9dc9" stroke-linecap="butt" opacity="1" stroke-linejoin="round"/>
<path stroke="#000000" stroke-opacity="0" stroke-width="2.54587" d="M713.934+1683.76L718.681+1642.42L761.015+1647.47L748.671+1694.37" fill="#5d9dc9" stroke-linecap="butt" opacity="1" stroke-linejoin="round"/>
<path stroke="#000000" stroke-opacity="0" stroke-width="2.54587" d="M774.706+1724.25L802.033+1693.61L833.231+1711.64L834.467+1720.35" fill="#5d9dc9" stroke-linecap="butt" opacity="1" stroke-linejoin="round"/>
<path stroke="#000000" stroke-opacity="0" stroke-width="2.54587" d="M1044.97+1494.53L1051.22+1446.52L1094.13+1424.29" fill="#5d9dc9" stroke-linecap="butt" opacity="1" stroke-linejoin="round"/>
<path stroke="#000000" stroke-opacity="0" stroke-width="2.54587" d="M1088.32+1605.95L1051.73+1572.71L1078.85+1555.1L1092.55+1576.26" fill="#5d9dc9" stroke-linecap="butt" opacity="1" stroke-linejoin="round"/>
<path stroke="#000000" stroke-opacity="0" stroke-width="2.54587" d="M1004.55+1686.19L967.586+1668.51L1025.13+1651.64" fill="#5d9dc9" stroke-linecap="butt" opacity="1" stroke-linejoin="round"/>
<path stroke="#000000" stroke-opacity="0" stroke-width="2.54587" d="M1048.73+1671.66L1060.94+1625.64L1075.41+1628.26L1094.69+1653.46" fill="#67c5f1" stroke-linecap="butt" opacity="1" stroke-linejoin="round"/>
<path stroke="#000000" stroke-opacity="0" stroke-width="2.54587" d="M1061.94+1625.75L1088.42+1607.06L1075.73+1628.17L1105.83+1621.35L1125.64+1636.4L1094.05+1652.19L1075.61+1628.15" fill="#116792" stroke-linecap="butt" opacity="1" stroke-linejoin="round"/>
<path stroke="#000000" stroke-opacity="0" stroke-width="2.54587" d="M986.528+1693.57L968.122+1669.47L1004.23+1686.27L1026.04+1650.66L1060.55+1626.95L1048.65+1672.57" fill="#116792" stroke-linecap="butt" opacity="1" stroke-linejoin="round"/>
<path stroke="#000000" stroke-opacity="0" stroke-width="2.54587" d="M922.431+1632.86L945.578+1592.96L969.762+1632.52" fill="#116792" stroke-linecap="butt" opacity="1" stroke-linejoin="round"/>
<path stroke="#000000" stroke-opacity="0" stroke-width="2.54587" d="M1009.56+1564.99L988.088+1525.28L1045.33+1495.45L1051.85+1571.89" fill="#116792" stroke-linecap="butt" opacity="1" stroke-linejoin="round"/>
<path stroke="#000000" stroke-opacity="0" stroke-width="2.54587" d="M875.846+1715.12L898.492+1678.52L930.482+1707.75" fill="#116792" stroke-linecap="butt" opacity="1" stroke-linejoin="round"/>
<path stroke="#000000" stroke-opacity="0" stroke-width="2.54587" d="M875.974+1595.14L922.342+1633.57L929.887+1661.01L898.94+1678.01L873.285+1644.56" fill="#116792" stroke-linecap="butt" opacity="1" stroke-linejoin="round"/>
<path stroke="#000000" stroke-opacity="0" stroke-width="2.54587" d="M893.448+1510.25L893.02+1471.63L918.666+1520.79" fill="#116792" stroke-linecap="butt" opacity="1" stroke-linejoin="round"/>
<path stroke="#000000" stroke-opacity="0" stroke-width="2.54587" d="M842.155+1582.63L817.934+1513.81L847.284+1530.91" fill="#116792" stroke-linecap="butt" opacity="1" stroke-linejoin="round"/>
<path stroke="#000000" stroke-opacity="0" stroke-width="2.54587" d="M780.251+1503.89L754.298+1463.32L805.905+1474.21L818.136+1513.73" fill="#116792" stroke-linecap="butt" opacity="1" stroke-linejoin="round"/>
<path stroke="#000000" vectornator:shadowColor="#000000" vectornator:shadowOffset="10" stroke-width="2.54587" fill="#116792" stroke-linecap="butt" vectornator:shadowAngle="1.5708" stroke-linejoin="round" opacity="1" vectornator:shadowRadius="10" d="M760.905+1647.81L742.367+1598.4L761.294+1577.24L779.108+1609.53L774.731+1648.59" stroke-opacity="0" vectornator:shadowOpacity="0"/>
<path stroke="#000000" vectornator:shadowColor="#000000" vectornator:shadowOffset="10" stroke-width="2.54587" fill="#116792" stroke-linecap="butt" vectornator:shadowAngle="1.5708" stroke-linejoin="round" opacity="1" vectornator:shadowRadius="10" d="M695.787+1651.22L714.927+1596.12L718.677+1642.68" stroke-opacity="0" vectornator:shadowOpacity="0"/>
<path stroke="#000000" vectornator:shadowColor="#114967" vectornator:shadowOffset="10" stroke-width="2.54587" fill="#116792" stroke-linecap="butt" vectornator:shadowAngle="1.5708" stroke-linejoin="round" opacity="1" vectornator:shadowRadius="10" d="M736.167+1723.16L713.876+1684.49L749.347+1694.36L776.52+1722.67" stroke-opacity="0" vectornator:shadowOpacity="0"/>
<path stroke="#000000" vectornator:shadowColor="#000000" vectornator:shadowOffset="10" stroke-width="2.54587" fill="#116792" stroke-linecap="butt" vectornator:shadowAngle="1.5708" stroke-linejoin="round" opacity="1" vectornator:shadowRadius="10" d="M802.554+1692.79L828.425+1680.26L832.493+1711.67" stroke-opacity="0" vectornator:shadowOpacity="0"/>
<path stroke="#000000" vectornator:shadowColor="#000000" vectornator:shadowOffset="10" stroke-width="2.54587" fill="#116792" stroke-linecap="butt" vectornator:shadowAngle="1.5708" stroke-linejoin="round" opacity="1" vectornator:shadowRadius="10" d="M592.431+1593.09L656.618+1545.73L716.405+1540.36L655.581+1605.48" stroke-opacity="0" vectornator:shadowOpacity="0"/>
<path stroke="#000000" vectornator:shadowColor="#000000" vectornator:shadowOffset="10" stroke-width="2.54587" fill="#116792" stroke-linecap="butt" vectornator:shadowAngle="1.5708" stroke-linejoin="round" opacity="1" vectornator:shadowRadius="10" d="M628.033+1711.15L617.181+1651.16L641.585+1657.84" stroke-opacity="0" vectornator:shadowOpacity="0"/>
<path stroke="#000000" vectornator:shadowColor="#000000" vectornator:shadowOffset="10" stroke-width="2.54587" fill="#116792" stroke-linecap="butt" vectornator:shadowAngle="1.5708" stroke-linejoin="round" opacity="1" vectornator:shadowRadius="10" d="M563.875+1693.62L540.438+1660.12L543.494+1627.2" stroke-opacity="0" vectornator:shadowOpacity="0"/>
<path stroke="#000000" vectornator:shadowColor="#000000" vectornator:shadowOffset="10" stroke-width="2.54587" fill="#116792" stroke-linecap="butt" vectornator:shadowAngle="1.5708" stroke-linejoin="round" opacity="1" vectornator:shadowRadius="10" d="M498.308+1670.5L477.304+1590.01L543.571+1626.41L526.772+1658.37" stroke-opacity="0" vectornator:shadowOpacity="0"/>
<path stroke="#000000" vectornator:shadowColor="#000000" vectornator:shadowOffset="10" stroke-width="2.54587" fill="#114f6c" stroke-linecap="butt" vectornator:shadowAngle="1.5708" stroke-linejoin="round" opacity="1" vectornator:shadowRadius="10" d="M529.575+1603.13L519.197+1600.86L542.749+1625.9" stroke-opacity="0" vectornator:shadowOpacity="0"/>
<path stroke="#000000" vectornator:shadowColor="#000000" vectornator:shadowOffset="10" stroke-width="2.54587" fill="#114f6c" stroke-linecap="butt" vectornator:shadowAngle="1.5708" stroke-linejoin="round" opacity="1" vectornator:shadowRadius="10" d="M499.176+1670.47L527.414+1657.38L540.505+1659.85L562.996+1691.46" stroke-opacity="0" vectornator:shadowOpacity="0"/>
<path stroke="#000000" vectornator:shadowColor="#000000" vectornator:shadowOffset="10" stroke-width="2.54587" fill="#114f6c" stroke-linecap="butt" vectornator:shadowAngle="1.5708" stroke-linejoin="round" opacity="1" vectornator:shadowRadius="10" d="M629.876+1709.76L641.147+1658.25L660.965+1662.33" stroke-opacity="0" vectornator:shadowOpacity="0"/>
<path stroke="#000000" vectornator:shadowColor="#000000" vectornator:shadowOffset="10" stroke-width="2.54587" fill="#114f6c" stroke-linecap="butt" vectornator:shadowAngle="1.5708" stroke-linejoin="round" opacity="1" vectornator:shadowRadius="10" d="M676.269+1718.46L693.759+1693.77L733.938+1722.91" stroke-opacity="0" vectornator:shadowOpacity="0"/>
<path stroke="#000000" vectornator:shadowColor="#000000" vectornator:shadowOffset="10" stroke-width="2.54587" fill="#114f6c" stroke-linecap="butt" vectornator:shadowAngle="1.5708" stroke-linejoin="round" opacity="1" vectornator:shadowRadius="10" d="M801.63+1693.04L775.382+1649.19L811.484+1657.84L827.973+1680.97" stroke-opacity="0" vectornator:shadowOpacity="0"/>
<path stroke="#000000" vectornator:shadowColor="#000000" vectornator:shadowOffset="10" stroke-width="2.54587" fill="#114f6c" stroke-linecap="butt" vectornator:shadowAngle="1.5708" stroke-linejoin="round" opacity="1" vectornator:shadowRadius="10" d="M756.217+1518.43L754.177+1464.9L779.286+1503.31" stroke-opacity="0" vectornator:shadowOpacity="0"/>
<path stroke="#000000" vectornator:shadowColor="#000000" vectornator:shadowOffset="10" stroke-width="2.54587" fill="#114f6c" stroke-linecap="butt" vectornator:shadowAngle="1.5708" stroke-linejoin="round" opacity="1" vectornator:shadowRadius="10" d="M1093.46+1577.13L1078.65+1554.91L1122.95+1522.82L1190.12+1534.37" stroke-opacity="0" vectornator:shadowOpacity="0"/>
</g>
<g id="Layer 1" vectornator:layerName="Layer 1" opacity="0.35">
<path d="M466.413+1661.76L459.658+1585.58L520.077+1536.05L603.011+1498.9L620.273+1456.49L645.416+1460.24L652.921+1432.1L740.166+1397.91L785.914+1398.11L819.885+1403.16L819.334+1434.26L864.53+1409.86L973.183+1395.5L991.727+1414.57L1008.74+1446.3L1058.85+1422.4L1095.42+1424.75L1119.45+1457.66L1185.54+1534.06L1094.25+1576.13L1104.02+1619.35L1130.67+1640.76C1130.67+1640.76+986.302+1719.79+820.455+1729.78C636.944+1740.84+466.413+1661.76+466.413+1661.76Z" fill="url(#LinearGradient)" opacity="1" vectornator:blendMode="Darken"/>
</g>
<g id="Layer 1 copy" vectornator:layerName="Layer 1 copy" opacity="0.2">
<path d="M466.413+1661.76L459.658+1585.58L520.077+1536.05L603.011+1498.9L620.273+1456.49L645.416+1460.24L652.921+1432.1L740.166+1397.91L785.914+1398.11L819.885+1403.16L819.334+1434.26L864.53+1409.86L973.183+1395.5L991.727+1414.57L1008.74+1446.3L1058.85+1422.4L1095.42+1424.75L1119.45+1457.66L1185.54+1534.06L1094.25+1576.13L1104.02+1619.35L1130.67+1640.76C1130.67+1640.76+986.302+1719.79+820.455+1729.78C636.944+1740.84+466.413+1661.76+466.413+1661.76Z" fill="#ffffff" opacity="1" vectornator:blendMode="Darken"/>
</g>
<g id="Layer 5" vectornator:layerName="Layer 5">
<path stroke="#000000" stroke-width="2.54587" d="M484.335+1665.45L477.436+1589.99L521.043+1553.95" fill="#000000" stroke-linecap="butt" fill-opacity="0" opacity="1" stroke-linejoin="round"/>
<path stroke="#000000" stroke-width="2.54587" d="M518.621+1601.07L522.29+1531.75" fill="#000000" stroke-linecap="butt" fill-opacity="0" opacity="1" stroke-linejoin="round"/>
<path stroke="#000000" stroke-width="2.54587" d="M673.805+1722.06L693.568+1694.69L696.443+1650.16L715.222+1594.99L715.222+1594.99L756.646+1518.52L753.466+1463.38L757.425+1461.34L767.14+1413.38L737.455+1398.68" fill="#000000" stroke-linecap="butt" fill-opacity="0" opacity="1" stroke-linejoin="round"/>
<path stroke="#000000" stroke-width="2.54587" d="M715.063+1595.22L718.549+1642.46L713.587+1684.15L737.925+1726.24L693.975+1694.02" fill="#000000" stroke-linecap="butt" fill-opacity="0" opacity="1" stroke-linejoin="round"/>
<path stroke="#000000" stroke-width="2.54587" d="M656.391+1717L692.913+1694.07L713.742+1684.13L749.633+1695.17L801.893+1692.75L831.104+1711.05L887.109+1715.33" fill="#000000" stroke-linecap="butt" fill-opacity="0" opacity="1" stroke-linejoin="round"/>
<path stroke="#000000" stroke-width="2.54587" d="M628.951+1713.92L641.527+1658.36L637.552+1649.53L655.676+1605.38L716.541+1540.7L706.905+1499.81L669.465+1465.7L678.749+1442.48L651.613+1432.43" fill="#000000" stroke-linecap="butt" fill-opacity="0" opacity="1" stroke-linejoin="round"/>
<path stroke="#000000" stroke-width="2.54587" d="M753.765+1463.41L706.829+1500.4" fill="#000000" stroke-linecap="butt" fill-opacity="0" opacity="1" stroke-linejoin="round"/>
<path stroke="#000000" stroke-width="2.54587" d="M780.034+1726.78L748.953+1694.65L760.706+1648.16L742.423+1598.8L760.967+1577.64L760.184+1560.93L786.563+1545.78L817.905+1513.39L805.761+1473.97L836.448+1452.24L819.026+1448.05L817.91+1433.14" fill="#000000" stroke-linecap="butt" fill-opacity="0" opacity="1" stroke-linejoin="round"/>
<path stroke="#000000" stroke-width="2.54587" d="M779.991+1503.9L754.091+1463.64L806.483+1474" fill="#000000" stroke-linecap="butt" fill-opacity="0" opacity="1" stroke-linejoin="round"/>
<path stroke="#000000" stroke-width="2.54587" d="M789.409+1444.92L818.617+1447.9" fill="#000000" stroke-linecap="butt" fill-opacity="0" opacity="1" stroke-linejoin="round"/>
<path stroke="#000000" stroke-width="2.54587" d="M1008.18+1448.85L1051.58+1446.29L1092.92+1425.35" fill="#000000" stroke-linecap="butt" fill-opacity="0" opacity="1" stroke-linejoin="round"/>
<path stroke="#000000" stroke-width="2.54587" d="M834.537+1725L827.879+1680.45L811.348+1657.36L856.598+1621.34L835.198+1617.18L842.047+1583.42L847.427+1530.54L892.824+1471.32L877.867+1457.08L881.125+1422.16L864.448+1411.59" fill="#000000" stroke-linecap="butt" fill-opacity="0" opacity="1" stroke-linejoin="round"/>
<path stroke="#000000" stroke-width="2.55" d="M875.481+1714.88L898.836+1678.31L873.332+1644.78L875.618+1595.63L917.913+1522.75L1007.36+1447.59" fill="#000000" stroke-linecap="butt" fill-opacity="0" opacity="1" stroke-linejoin="round"/>
<path stroke="#000000" stroke-width="2.55" d="M988.786+1696.22L967.067+1668.5L929.63+1661.93L921.914+1633.06L945.633+1593.34L945.633+1561.33L988.214+1525.32L1045.08+1495.6L1051.37+1446.16L1059.66+1423.87" fill="#000000" stroke-linecap="butt" fill-opacity="0" opacity="1" stroke-linejoin="round"/>
<path stroke="#000000" stroke-width="2.55" d="M1001.73+1687.72C1002.46+1693.81+1025.75+1651.16+1025.75+1651.16L1089.01+1606.34L1051.38+1572.32L1078.71+1554.52L1084.24+1498.42L1118.3+1458.75" fill="#000000" stroke-linecap="butt" fill-opacity="0" opacity="1" stroke-linejoin="round"/>
<path stroke="#000000" stroke-width="2.55" d="M1106.07+1621.36L1075.3+1628.44L1061.16+1625.82L1047.9+1674.27" fill="#000000" stroke-linecap="butt" fill-opacity="0" opacity="1" stroke-linejoin="round"/>
<path stroke="#000000" stroke-width="2.55" d="M1008.76+1445.29L988.417+1525.49L1009.42+1565.36L1051.85+1571.79" fill="#000000" stroke-linecap="butt" fill-opacity="0" opacity="1" stroke-linejoin="round"/>
<path stroke="#000000" stroke-width="2.55" d="M1009.76+1565.58L945.838+1593.95L1008.15+1604.48" fill="#000000" stroke-linecap="butt" fill-opacity="0" opacity="1" stroke-linejoin="round"/>
<path stroke="#000000" stroke-width="2.55" d="M1025.28+1650.26L970.001+1632.57L946.329+1593.86" fill="#000000" stroke-linecap="butt" fill-opacity="0" opacity="1" stroke-linejoin="round"/>
<path stroke="#000000" stroke-width="2.55" d="M969.945+1632.59L921.683+1633.27L875.87+1595.25L842.503+1583.24L779.046+1609.98L775.24+1648.94L761.134+1648.05L718.352+1642.92L697.225+1650.94" fill="#000000" stroke-linecap="butt" fill-opacity="0" opacity="1" stroke-linejoin="round"/>
<path stroke="#000000" stroke-width="2.55" d="M929.327+1661.78L898.76+1678.6L934.051+1711.06" fill="#000000" stroke-linecap="butt" fill-opacity="0" opacity="1" stroke-linejoin="round"/>
<path stroke="#000000" stroke-width="2.55" d="M1190.88+1534.33L1122.18+1522.94L1084.21+1498.19L1044.73+1495.17L1006.28+1447.13" fill="#000000" stroke-linecap="butt" fill-opacity="0" opacity="1" stroke-linejoin="round"/>
<path stroke="#000000" stroke-width="2.55" d="M1093.5+1423.99L1044.72+1495.35L1051.93+1572.44L1007.93+1604.08L1025.11+1650.34L966.791+1668.79L1003.72+1686.3" fill="#000000" stroke-linecap="butt" fill-opacity="0" opacity="1" stroke-linejoin="round"/>
<path stroke="#000000" stroke-width="2.55" d="M1122.91+1523.1L1079.33+1555.23L1092.61+1576.27L1089.06+1606.28L1075.22+1627.73L1095.22+1653.91" fill="#000000" stroke-linecap="butt" fill-opacity="0" opacity="1" stroke-linejoin="round"/>
<path stroke="#000000" stroke-width="2.55" d="M856.608+1621.38L872.92+1644.43L858.782+1655.91L828.015+1680.88L801.742+1692.96L775.781+1722.25" fill="#000000" stroke-linecap="butt" fill-opacity="0" opacity="1" stroke-linejoin="round"/>
<path stroke="#000000" stroke-width="2.55" d="M835.396+1617.13L811.671+1614.61L775.753+1648.96L811.798+1657.24" fill="#000000" stroke-linecap="butt" fill-opacity="0" opacity="1" stroke-linejoin="round"/>
<path stroke="#000000" stroke-width="2.55" d="M775.003+1648.92L801.407+1692.81" fill="#000000" stroke-linecap="butt" fill-opacity="0" opacity="1" stroke-linejoin="round"/>
<path stroke="#000000" stroke-width="2.55" d="M991.306+1413.2L892.678+1470.88L918.607+1521.79L893.755+1509.44L842.032+1583.14L818.123+1514.16L842.726+1470.95L878.029+1456.7L971.565+1397.21" fill="#000000" stroke-linecap="butt" fill-opacity="0" opacity="1" stroke-linejoin="round"/>
<path stroke="#000000" stroke-width="2.55" d="M893.521+1510.17L892.774+1472.33" fill="#000000" stroke-linecap="butt" fill-opacity="0" opacity="1" stroke-linejoin="round"/>
<path stroke="#000000" stroke-width="2.55" d="M945.835+1561.04L918.493+1522.01" fill="#000000" stroke-linecap="butt" fill-opacity="0" opacity="1" stroke-linejoin="round"/>
<path stroke="#000000" stroke-width="2.55" d="M971.802+1397.46L881.138+1422.09L836.834+1452.3L842.434+1470.91" fill="#000000" stroke-linecap="butt" fill-opacity="0" opacity="1" stroke-linejoin="round"/>
<path stroke="#000000" stroke-width="2.55" d="M786.678+1545.45L779.539+1572.77L760.922+1576.97L779.715+1610.23" fill="#000000" stroke-linecap="butt" fill-opacity="0" opacity="1" stroke-linejoin="round"/>
<path stroke="#000000" stroke-width="2.55" d="M818.25+1404.95L790.114+1444.63L753.59+1463.85" fill="#000000" stroke-linecap="butt" fill-opacity="0" opacity="1" stroke-linejoin="round"/>
<path stroke="#000000" stroke-width="2.55" d="M818.31+1405.37L766.944+1413.42L678.474+1442.27" fill="#000000" stroke-linecap="butt" fill-opacity="0" opacity="1" stroke-linejoin="round"/>
<path stroke="#000000" stroke-width="2.54587" d="M847.026+1530.75L818.007+1513.61L779.252+1503.73L756.594+1518.74L716.193+1540.59L656.823+1546.21L591.309+1593.46L655.134+1605.49L715.418+1595.19L742.599+1598.81" fill="#000000" stroke-linecap="butt" fill-opacity="0" opacity="1" stroke-linejoin="round"/>
<path stroke="#000000" stroke-width="2.54587" d="M697.421+1650.35L661.414+1662.36L628.51+1712.7L616.748+1650.67L591.359+1593.84L539.188+1541.35L624.899+1510.43L645.389+1459.43L669.508+1465.9" fill="#000000" stroke-linecap="butt" fill-opacity="0" opacity="1" stroke-linejoin="round"/>
<path stroke="#000000" stroke-width="2.54587" d="M602.661+1498.25L625.156+1510.35L656.627+1546.4" fill="#000000" stroke-linecap="butt" fill-opacity="0" opacity="1" stroke-linejoin="round"/>
<path stroke="#000000" stroke-width="2.54587" d="M656.082+1605.83L661.731+1662.09L641.63+1658.48L616.751+1651.77" fill="#000000" stroke-linecap="butt" fill-opacity="0" opacity="1" stroke-linejoin="round"/>
<path stroke="#000000" stroke-width="2.54587" d="M637.587+1649.38L592.158+1593.59L543.353+1626.3L529.128+1602.64L538.857+1541.48L521.591+1532.34" fill="#000000" stroke-linecap="butt" fill-opacity="0" opacity="1" stroke-linejoin="round"/>
<path stroke="#000000" stroke-width="2.54587" d="M592.058+1701.72L543.366+1626.43L565.3+1694.61L540.67+1660.05L526.609+1657.62L498.618+1669.76L478.021+1589.9L543.235+1626.45L518.606+1601.05L529.444+1603.14L591.209+1593.94" fill="#000000" stroke-linecap="butt" fill-opacity="0" opacity="1" stroke-linejoin="round"/>
<path stroke="#000000" stroke-width="2.54587" d="M540.63+1659.65L543.039+1627.13L527.358+1657.15" fill="#000000" stroke-linecap="butt" fill-opacity="0" opacity="1" stroke-linejoin="round"/>
<path stroke="#000000" stroke-width="2.54587" d="M460.794+1584.28L478.053+1590.02" fill="#000000" stroke-linecap="butt" fill-opacity="0" opacity="1" stroke-linejoin="round"/>
</g>
<g id="Layer 2" vectornator:layerName="Layer 2">
<path stroke="#000000" stroke-width="6.63152" d="M465.566+1656.68L459.744+1583.67L521.554+1531.26L601.729+1497.22L618.749+1455.57L645.176+1459.15L652.342+1432.73L736.658+1398.63L781.717+1397.43L818.774+1404.54L818.113+1433.37L862.501+1410.61L971.959+1396.13L990.49+1412.29L1006.65+1446.67L1058.45+1423.32L1095.19+1423.44L1119.24+1458.92L1191.15+1534.12L1095.89+1575.63L1106.31+1621.04L1131.41+1639.82" fill="#000000" stroke-linecap="butt" fill-opacity="0" opacity="1" stroke-linejoin="round"/>
</g>
<g id="Layer 9" vectornator:layerName="Layer 9">
<path stroke="#000000" vectornator:shadowColor="#000000" vectornator:shadowOffset="16.7181" stroke-width="4" fill="#f9e6bd" stroke-linecap="butt" vectornator:shadowAngle="2.35102" stroke-linejoin="round" opacity="1" vectornator:shadowRadius="20.793" d="M356.361+1149.24L321.692+1035.89L225.816+925.301L219.952+812.817L376.931+698.227L399.588+618.488L475.838+496.068L564.789+516.968L621.686+419.878L771.744+394.118L757.499+492.937L903.048+560.32L925.798+442.695L940.114+335.908L1037.74+470.667L1139.29+590.992L1222.61+720.842L1278.04+842.964L1223.18+1014.13L1204.17+1111.31L1115.43+1163.24L962.86+1140.79L843.652+1048.02L674.973+989.504L562.567+1069.18L478.28+1102.76L433.505+1146.62L356.361+1149.24Z" vectornator:shadowOpacity="0.997475"/>
<path stroke="#000000" vectornator:shadowColor="#000000" vectornator:shadowOffset="16.7181" stroke-width="4" fill="#f9e6bd" stroke-linecap="butt" vectornator:shadowAngle="2.35102" stroke-linejoin="round" opacity="1" vectornator:shadowRadius="20.793" d="M1063.09+1189.14L1094.38+1283.09L1134.49+1281.48L1156.46+1236.56L1144.88+1174.17L1105.92+1211.83L1063.09+1189.14Z" vectornator:shadowOpacity="1"/>
</g>
<g id="Layer 10" vectornator:layerName="Layer 10" visibility="hidden">
<g opacity="1">
<path d="M319.772+1028.62L351.593+1135.32" fill="#f9e6bd"/>
<g>
<path stroke-linecap="butt" stroke-width="3" stroke="#000000" d="M325.347+1047.31C328.25+1057.05+351.593+1135.32+351.593+1135.32" fill="none" stroke-linejoin="round"/>
<path d="M319.774+1028.63C314.217+1030.28+311.056+1036.13+312.713+1041.69C314.37+1047.25+320.219+1050.41+325.776+1048.75C331.333+1047.09+334.494+1041.25+332.837+1035.69C331.18+1030.13+325.331+1026.97+319.774+1028.63ZM320.632+1031.5C324.601+1030.32+328.778+1032.58+329.962+1036.55C331.146+1040.51+328.888+1044.69+324.918+1045.88C320.949+1047.06+316.772+1044.8+315.588+1040.83C314.404+1036.86+316.662+1032.69+320.632+1031.5Z" fill="#000000"/>
</g>
</g>
<g opacity="1">
<path d="M219.497+804.721L224.922+911.299" fill="#f9e6bd"/>
<g>
<path stroke-linecap="butt" stroke-width="3" stroke="#000000" d="M220.489+824.2C220.977+833.8+224.922+911.299+224.922+911.299" fill="none" stroke-linejoin="round"/>
<path d="M219.497+804.725C213.706+805.02+209.25+809.954+209.545+815.746C209.839+821.537+214.773+825.993+220.565+825.698C226.356+825.403+230.812+820.47+230.517+814.678C230.223+808.887+225.289+804.431+219.497+804.725ZM219.65+807.722C223.787+807.511+227.311+810.694+227.521+814.831C227.732+818.967+224.549+822.492+220.412+822.702C216.275+822.913+212.751+819.73+212.541+815.593C212.33+811.456+215.513+807.932+219.65+807.722Z" fill="#000000"/>
</g>
</g>
<g opacity="1">
<path d="M220.557+919.604L310.562+1023.68" fill="#f9e6bd"/>
<g>
<path stroke-linecap="butt" stroke-width="3" stroke="#000000" d="M233.318+934.359C241.875+944.254+310.562+1023.68+310.562+1023.68" fill="none" stroke-linejoin="round"/>
<path d="M220.562+919.609C216.176+923.403+215.695+930.034+219.489+934.42C223.282+938.806+229.913+939.287+234.299+935.493C238.685+931.7+239.166+925.069+235.373+920.683C231.579+916.297+224.948+915.816+220.562+919.609ZM222.525+921.879C225.658+919.169+230.394+919.512+233.103+922.645C235.813+925.779+235.47+930.515+232.337+933.224C229.204+935.934+224.467+935.591+221.758+932.457C219.048+929.324+219.392+924.588+222.525+921.879Z" fill="#000000"/>
</g>
</g>
<g opacity="1">
<path d="M383.136+693.361L231.855+804.407" fill="#f9e6bd"/>
<g>
<path stroke-linecap="butt" stroke-width="3" stroke="#000000" d="M367.402+704.91C352.887+715.565+231.855+804.407+231.855+804.407" fill="none" stroke-linejoin="round"/>
<path d="M383.122+693.371C379.691+688.696+373.119+687.689+368.445+691.12C363.77+694.551+362.762+701.123+366.193+705.798C369.625+710.472+376.196+711.48+380.871+708.049C385.546+704.617+386.554+698.046+383.122+693.371ZM380.704+695.146C383.155+698.486+382.435+703.179+379.096+705.63C375.756+708.081+371.063+707.362+368.612+704.022C366.161+700.683+366.881+695.989+370.22+693.538C373.559+691.087+378.253+691.807+380.704+695.146Z" fill="#000000"/>
</g>
</g>
<g opacity="1">
<path d="M401.77+612.021L381.28+681.119" fill="#f9e6bd"/>
<g>
<path stroke-linecap="butt" stroke-width="3" stroke="#000000" d="M396.225+630.72C394.767+635.635+381.28+681.119+381.28+681.119" fill="none" stroke-linejoin="round"/>
<path d="M401.769+612.024C396.209+610.376+390.365+613.546+388.717+619.106C387.068+624.666+390.239+630.509+395.798+632.158C401.358+633.806+407.201+630.636+408.85+625.076C410.499+619.516+407.328+613.673+401.769+612.024ZM400.916+614.9C404.887+616.078+407.152+620.252+405.974+624.223C404.796+628.194+400.622+630.459+396.651+629.281C392.68+628.104+390.415+623.93+391.593+619.959C392.77+615.987+396.944+613.723+400.916+614.9Z" fill="#000000"/>
</g>
</g>
<g opacity="1">
<path d="M480.5+489.457L408.178+605.21" fill="#f9e6bd"/>
<g>
<path stroke-linecap="butt" stroke-width="3" stroke="#000000" d="M470.16+506.007C463.291+517.001+408.178+605.21+408.178+605.21" fill="none" stroke-linejoin="round"/>
<path d="M480.493+489.469C475.575+486.396+469.097+487.892+466.025+492.81C462.952+497.728+464.448+504.206+469.366+507.279C474.284+510.351+480.761+508.856+483.834+503.938C486.907+499.02+485.411+492.542+480.493+489.469ZM478.903+492.013C482.416+494.208+483.485+498.835+481.29+502.348C479.095+505.861+474.468+506.929+470.955+504.734C467.442+502.54+466.374+497.913+468.569+494.4C470.764+490.887+475.391+489.819+478.903+492.013Z" fill="#000000"/>
</g>
</g>
<g opacity="1">
<path d="M571.69+518.408L491.843+500.296" fill="#f9e6bd"/>
<g>
<path stroke-linecap="butt" stroke-width="3" stroke="#000000" d="M552.664+514.092C546.35+512.66+491.843+500.296+491.843+500.296" fill="none" stroke-linejoin="round"/>
<path d="M571.681+518.406C572.964+512.751+569.419+507.126+563.764+505.843C558.109+504.561+552.484+508.105+551.201+513.76C549.919+519.416+553.463+525.04+559.118+526.323C564.774+527.606+570.398+524.061+571.681+518.406ZM568.755+517.742C567.839+521.782+563.822+524.314+559.782+523.397C555.743+522.481+553.211+518.464+554.127+514.424C555.043+510.385+559.061+507.853+563.1+508.769C567.14+509.685+569.672+513.703+568.755+517.742Z" fill="#000000"/>
</g>
</g>
<g opacity="1">
<g>
<path stroke-linecap="butt" stroke-width="3" stroke="#000000" d="M615.756+430.406C611.025+438.408+572.719+503.208+572.719+503.208" fill="none" stroke-linejoin="round"/>
<path d="M625.679+413.62C620.687+410.669+614.248+412.323+611.297+417.315C608.346+422.307+610+428.747+614.992+431.697C619.984+434.648+626.424+432.994+629.374+428.002C632.325+423.01+630.671+416.571+625.679+413.62ZM624.152+416.202C627.718+418.31+628.9+422.909+626.792+426.475C624.684+430.041+620.085+431.223+616.519+429.115C612.953+427.007+611.772+422.408+613.879+418.842C615.987+415.276+620.586+414.095+624.152+416.202Z" fill="#000000"/>
</g>
</g>
<g opacity="1">
<g>
<path stroke-linecap="butt" stroke-width="3" stroke="#000000" d="M759.22+396.401C745.51+398.734+635.033+417.533+635.033+417.533" fill="none" stroke-linejoin="round"/>
<path d="M778.444+393.13C777.471+387.413+772.048+383.567+766.331+384.54C760.614+385.513+756.768+390.936+757.741+396.653C758.714+402.369+764.137+406.215+769.854+405.242C775.571+404.269+779.417+398.846+778.444+393.13ZM775.486+393.633C776.181+397.716+773.434+401.59+769.351+402.285C765.267+402.98+761.394+400.233+760.699+396.149C760.004+392.066+762.751+388.192+766.834+387.497C770.918+386.802+774.791+389.549+775.486+393.633Z" fill="#000000"/>
</g>
</g>
<g opacity="1">
<g>
<path stroke-linecap="butt" stroke-width="3" stroke="#000000" d="M758.985+481.118C760.136+473.31+769.666+408.666+769.666+408.666" fill="none" stroke-linejoin="round"/>
<path d="M756.141+500.41C761.878+501.255+767.214+497.29+768.06+491.553C768.906+485.816+764.94+480.48+759.203+479.634C753.467+478.788+748.13+482.753+747.284+488.49C746.439+494.227+750.404+499.564+756.141+500.41ZM756.578+497.442C752.48+496.837+749.648+493.026+750.252+488.928C750.856+484.83+754.668+481.998+758.766+482.602C762.864+483.206+765.696+487.018+765.092+491.116C764.488+495.214+760.676+498.046+756.578+497.442Z" fill="#000000"/>
</g>
</g>
<g opacity="1">
<g>
<path stroke-linecap="butt" stroke-width="3" stroke="#000000" d="M891.82+555.294C878.633+549.174+771.975+499.673+771.975+499.673" fill="none" stroke-linejoin="round"/>
<path d="M909.508+563.503C911.949+558.243+909.664+551.999+904.404+549.558C899.144+547.117+892.901+549.402+890.459+554.662C888.018+559.922+890.303+566.165+895.563+568.607C900.823+571.048+907.067+568.763+909.508+563.503ZM906.787+562.24C905.043+565.997+900.584+567.629+896.826+565.886C893.069+564.142+891.437+559.682+893.181+555.925C894.924+552.168+899.384+550.536+903.141+552.279C906.898+554.023+908.53+558.483+906.787+562.24Z" fill="#000000"/>
</g>
</g>
<g opacity="1">
<g>
<path stroke-linecap="butt" stroke-width="3" stroke="#000000" d="M938.364+349.62C935.048+370.062+906.533+545.827+906.533+545.827L941.488+330.362" fill="none" stroke-linejoin="round"/>
<path d="M941.486+330.372C935.762+329.443+930.369+333.331+929.441+339.055C928.512+344.779+932.399+350.172+938.124+351.101C943.848+352.03+949.241+348.142+950.17+342.418C951.098+336.694+947.211+331.301+941.486+330.372ZM941.006+333.333C945.095+333.997+947.872+337.849+947.208+341.938C946.545+346.026+942.693+348.803+938.604+348.14C934.515+347.476+931.738+343.624+932.402+339.535C933.065+335.447+936.917+332.67+941.006+333.333Z" fill="#000000"/>
</g>
</g>
<g opacity="1">
<g>
<path stroke-linecap="butt" stroke-width="3" stroke="#000000" d="M1029.7+460.277C1021.03+448.149+950.739+349.812+950.739+349.812" fill="none" stroke-linejoin="round"/>
<path d="M1041.04+476.141C1045.76+472.769+1046.85+466.211+1043.48+461.493C1040.11+456.775+1033.55+455.685+1028.83+459.057C1024.11+462.429+1023.02+468.987+1026.39+473.705C1029.77+478.423+1036.32+479.513+1041.04+476.141ZM1039.3+473.7C1035.93+476.109+1031.24+475.33+1028.83+471.96C1026.43+468.591+1027.2+463.906+1030.57+461.497C1033.94+459.089+1038.63+459.868+1041.04+463.237C1043.45+466.607+1042.67+471.292+1039.3+473.7Z" fill="#000000"/>
</g>
</g>
<g opacity="1">
<g>
<path stroke-linecap="butt" stroke-width="3" stroke="#000000" d="M1132.41+581.597C1123.42+571.003+1050.99+485.648+1050.99+485.648" fill="none" stroke-linejoin="round"/>
<path d="M1145.02+596.466C1149.44+592.714+1149.99+586.088+1146.23+581.666C1142.48+577.244+1135.86+576.701+1131.44+580.453C1127.01+584.205+1126.47+590.831+1130.22+595.253C1133.97+599.675+1140.6+600.218+1145.02+596.466ZM1143.08+594.178C1139.92+596.858+1135.19+596.47+1132.51+593.312C1129.83+590.154+1130.22+585.421+1133.38+582.741C1136.53+580.061+1141.27+580.449+1143.95+583.607C1146.63+586.765+1146.24+591.498+1143.08+594.178Z" fill="#000000"/>
</g>
</g>
<g opacity="1">
<g>
<path stroke-linecap="butt" stroke-width="3" stroke="#000000" d="M1217.14+710.88C1209.54+699.184+1148.34+604.921+1148.34+604.921" fill="none" stroke-linejoin="round"/>
<path d="M1227.75+727.235C1232.62+724.077+1234+717.574+1230.84+712.711C1227.69+707.847+1221.18+706.464+1216.32+709.622C1211.46+712.78+1210.07+719.283+1213.23+724.147C1216.39+729.01+1222.89+730.393+1227.75+727.235ZM1226.12+724.719C1222.65+726.975+1218+725.987+1215.75+722.513C1213.49+719.039+1214.48+714.394+1217.95+712.138C1221.43+709.883+1226.07+710.87+1228.33+714.344C1230.58+717.819+1229.6+722.463+1226.12+724.719Z" fill="#000000"/>
</g>
</g>
<g opacity="1">
<g>
<path stroke-linecap="butt" stroke-width="3" stroke="#000000" d="M1272.99+832.88C1268.13+822.217+1229.23+736.866+1229.23+736.866" fill="none" stroke-linejoin="round"/>
<path d="M1281.08+850.624C1286.35+848.219+1288.68+841.991+1286.28+836.715C1283.87+831.438+1277.64+829.11+1272.37+831.515C1267.09+833.92+1264.76+840.148+1267.17+845.424C1269.57+850.701+1275.8+853.029+1281.08+850.624ZM1279.83+847.894C1276.06+849.612+1271.62+847.949+1269.9+844.18C1268.18+840.411+1269.84+835.963+1273.61+834.245C1277.38+832.527+1281.83+834.19+1283.55+837.959C1285.26+841.728+1283.6+846.176+1279.83+847.894Z" fill="#000000"/>
</g>
</g>
<g opacity="1">
<g>
<path stroke-linecap="butt" stroke-width="3" stroke="#000000" d="M1227.18+1001.09C1232.31+985.33+1274.54+855.731+1274.54+855.731" fill="none" stroke-linejoin="round"/>
<path d="M1221.14+1019.63C1226.65+1021.43+1232.57+1018.42+1234.37+1012.9C1236.17+1007.39+1233.15+1001.46+1227.64+999.668C1222.13+997.871+1216.2+1000.88+1214.4+1006.4C1212.61+1011.91+1215.62+1017.84+1221.14+1019.63ZM1222.06+1016.78C1218.13+1015.5+1215.97+1011.27+1217.26+1007.33C1218.54+1003.39+1222.77+1001.24+1226.71+1002.52C1230.65+1003.8+1232.8+1008.04+1231.52+1011.97C1230.24+1015.91+1226+1018.07+1222.06+1016.78Z" fill="#000000"/>
</g>
</g>
<g opacity="1">
<g>
<path stroke-linecap="butt" stroke-width="3" stroke="#000000" d="M1206.14+1099.56C1207.71+1091.79+1220.68+1027.49+1220.68+1027.49" fill="none" stroke-linejoin="round"/>
<path d="M1202.29+1118.68C1207.97+1119.82+1213.51+1116.14+1214.66+1110.46C1215.8+1104.77+1212.13+1099.24+1206.44+1098.09C1200.76+1096.94+1195.22+1100.62+1194.07+1106.31C1192.93+1111.99+1196.6+1117.53+1202.29+1118.68ZM1202.88+1115.73C1198.82+1114.92+1196.19+1110.96+1197.01+1106.9C1197.83+1102.84+1201.79+1100.21+1205.85+1101.03C1209.91+1101.85+1212.54+1105.81+1211.72+1109.87C1210.9+1113.93+1206.94+1116.55+1202.88+1115.73Z" fill="#000000"/>
</g>
</g>
<g opacity="1">
<g>
<path stroke-linecap="butt" stroke-width="3" stroke="#000000" d="M1126+1157C1132.41+1153.33+1186.15+1122.63+1186.15+1122.63" fill="none" stroke-linejoin="round"/>
<path d="M1109.06+1166.67C1111.94+1171.7+1118.35+1173.45+1123.39+1170.58C1128.42+1167.7+1130.17+1161.29+1127.3+1156.25C1124.42+1151.22+1118.01+1149.47+1112.97+1152.34C1107.94+1155.22+1106.19+1161.63+1109.06+1166.67ZM1111.67+1165.18C1109.61+1161.58+1110.86+1157+1114.46+1154.95C1118.06+1152.89+1122.64+1154.14+1124.69+1157.74C1126.75+1161.34+1125.5+1165.92+1121.9+1167.97C1118.3+1170.03+1113.72+1168.78+1111.67+1165.18Z" fill="#000000"/>
</g>
</g>
<g opacity="1">
<g>
<path stroke-linecap="butt" stroke-width="3" stroke="#000000" d="M975.529+1142.83C989.172+1144.74+1099.03+1160.17+1099.03+1160.17" fill="none" stroke-linejoin="round"/>
<path d="M956.218+1140.12C955.412+1145.86+959.413+1151.17+965.156+1151.98C970.899+1152.78+976.208+1148.78+977.014+1143.04C977.821+1137.29+973.819+1131.99+968.077+1131.18C962.334+1130.37+957.025+1134.37+956.218+1140.12ZM959.189+1140.53C959.765+1136.43+963.558+1133.57+967.659+1134.15C971.761+1134.73+974.62+1138.52+974.043+1142.62C973.467+1146.72+969.675+1149.58+965.573+1149C961.471+1148.43+958.613+1144.64+959.189+1140.53Z" fill="#000000"/>
</g>
</g>
<g opacity="1">
<g>
<path stroke-linecap="butt" stroke-width="3" stroke="#000000" d="M852.766+1055.54C863.279+1063.67+947.739+1128.97+947.739+1128.97" fill="none" stroke-linejoin="round"/>
<path d="M837.339+1043.61C833.792+1048.2+834.635+1054.79+839.223+1058.34C843.811+1061.89+850.405+1061.04+853.952+1056.45C857.499+1051.87+856.656+1045.27+852.068+1041.73C847.48+1038.18+840.886+1039.02+837.339+1043.61ZM839.712+1045.44C842.246+1042.17+846.956+1041.56+850.233+1044.1C853.51+1046.63+854.113+1051.34+851.579+1054.62C849.045+1057.9+844.335+1058.5+841.058+1055.97C837.781+1053.43+837.179+1048.72+839.712+1045.44Z" fill="#000000"/>
</g>
</g>
<g opacity="1">
<g>
<path stroke-linecap="butt" stroke-width="3" stroke="#000000" d="M686.228+993.59C701.473+998.883+826.306+1042.23+826.306+1042.23" fill="none" stroke-linejoin="round"/>
<path d="M667.807+987.194C665.905+992.672+668.804+998.655+674.282+1000.56C679.76+1002.46+685.743+999.56+687.645+994.082C689.548+988.604+686.649+982.621+681.17+980.719C675.692+978.817+669.709+981.716+667.807+987.194ZM670.641+988.178C672+984.265+676.273+982.194+680.186+983.553C684.099+984.912+686.17+989.185+684.811+993.098C683.453+997.011+679.179+999.082+675.266+997.723C671.353+996.364+669.283+992.091+670.641+988.178Z" fill="#000000"/>
</g>
</g>
<g opacity="1">
<g>
<path stroke-linecap="butt" stroke-width="3" stroke="#000000" d="M573+1061.75C582.71+1054.86+660.437+999.734+660.437+999.734" fill="none" stroke-linejoin="round"/>
<path d="M557.095+1073.03C560.449+1077.76+567.003+1078.87+571.734+1075.52C576.464+1072.16+577.578+1065.61+574.224+1060.88C570.869+1056.15+564.315+1055.03+559.585+1058.39C554.855+1061.74+553.74+1068.3+557.095+1073.03ZM559.542+1071.29C557.145+1067.91+557.942+1063.23+561.32+1060.84C564.699+1058.44+569.38+1059.24+571.777+1062.61C574.173+1065.99+573.377+1070.67+569.998+1073.07C566.619+1075.47+561.938+1074.67+559.542+1071.29Z" fill="#000000"/>
</g>
</g>
<g opacity="1">
<g>
<path stroke-linecap="butt" stroke-width="3" stroke="#000000" d="M489.296+1098.36C495.3+1095.97+547.157+1075.32+547.157+1075.32" fill="none" stroke-linejoin="round"/>
<path d="M471.179+1105.57C473.325+1110.96+479.431+1113.59+484.819+1111.44C490.206+1109.3+492.835+1103.19+490.69+1097.81C488.545+1092.42+482.438+1089.79+477.051+1091.93C471.663+1094.08+469.034+1100.19+471.179+1105.57ZM473.967+1104.46C472.434+1100.62+474.312+1096.25+478.16+1094.72C482.009+1093.19+486.37+1095.07+487.903+1098.92C489.435+1102.76+487.557+1107.13+483.709+1108.66C479.861+1110.19+475.499+1108.31+473.967+1104.46Z" fill="#000000"/>
</g>
</g>
<g opacity="1">
<g>
<path stroke-linecap="butt" stroke-width="3" stroke="#000000" d="M442.06+1138.64C443.708+1137+466.027+1114.86+466.027+1114.86" fill="none" stroke-linejoin="round"/>
<path d="M428.216+1152.37C432.3+1156.49+438.949+1156.51+443.065+1152.43C447.182+1148.34+447.209+1141.7+443.125+1137.58C439.041+1133.46+432.392+1133.44+428.276+1137.52C424.159+1141.6+424.132+1148.25+428.216+1152.37ZM430.346+1150.26C427.429+1147.32+427.448+1142.57+430.388+1139.65C433.329+1136.73+438.078+1136.75+440.995+1139.69C443.912+1142.63+443.893+1147.38+440.953+1150.3C438.012+1153.22+433.263+1153.2+430.346+1150.26Z" fill="#000000"/>
</g>
</g>
<g opacity="1">
<g>
<path stroke-linecap="round" stroke-width="3" stroke="#000000" d="M368.569+1149.16C372.926+1149.03+416.432+1147.71+416.432+1147.71" fill="none" stroke-linejoin="round"/>
<path d="M348.329+1149.78C348.505+1155.58+353.346+1160.13+359.143+1159.96C364.939+1159.78+369.495+1154.94+369.319+1149.14C369.143+1143.35+364.301+1138.79+358.505+1138.97C352.708+1139.14+348.152+1143.98+348.329+1149.78ZM351.327+1149.69C351.201+1145.55+354.456+1142.09+358.596+1141.96C362.736+1141.84+366.194+1145.09+366.32+1149.23C366.446+1153.37+363.192+1156.83+359.051+1156.96C354.911+1157.08+351.453+1153.83+351.327+1149.69Z" fill="#000000"/>
</g>
</g>
<g opacity="1">
<g>
<path stroke-linecap="round" stroke-width="3" stroke="#000000" d="M1154.38+1224.93C1153.9+1222.13+1147.98+1187.64+1147.98+1187.64" fill="none" stroke-linejoin="round"/>
<path d="M1157.81+1244.89C1163.52+1243.91+1167.36+1238.48+1166.38+1232.76C1165.4+1227.05+1159.97+1223.21+1154.25+1224.19C1148.54+1225.17+1144.7+1230.6+1145.68+1236.32C1146.66+1242.03+1152.09+1245.87+1157.81+1244.89ZM1157.3+1241.93C1153.22+1242.63+1149.34+1239.89+1148.64+1235.81C1147.94+1231.73+1150.68+1227.85+1154.76+1227.15C1158.84+1226.45+1162.72+1229.19+1163.42+1233.27C1164.12+1237.35+1161.38+1241.23+1157.3+1241.93Z" fill="#000000"/>
</g>
</g>
<g opacity="1">
<g>
<path stroke-linecap="round" stroke-width="3" stroke="#000000" d="M1140.23+1270.35C1140.44+1269.92+1150.68+1249.7+1150.68+1249.7" fill="none" stroke-linejoin="round"/>
<path d="M1131.08+1288.42C1136.25+1291.04+1142.57+1288.97+1145.19+1283.79C1147.81+1278.62+1145.74+1272.3+1140.56+1269.68C1135.39+1267.06+1129.07+1269.13+1126.45+1274.3C1123.83+1279.48+1125.9+1285.8+1131.08+1288.42ZM1132.43+1285.74C1128.74+1283.87+1127.26+1279.36+1129.13+1275.66C1131+1271.96+1135.51+1270.49+1139.21+1272.36C1142.9+1274.23+1144.38+1278.74+1142.51+1282.44C1140.64+1286.13+1136.13+1287.61+1132.43+1285.74Z" fill="#000000"/>
</g>
</g>
<g opacity="1">
<g>
<path stroke-linecap="round" stroke-width="3" stroke="#000000" d="M1135.91+1183.14C1135.13+1183.89+1116.57+1201.73+1116.57+1201.73" fill="none" stroke-linejoin="round"/>
<path d="M1150.51+1169.1C1146.49+1164.92+1139.84+1164.79+1135.66+1168.81C1131.48+1172.83+1131.35+1179.47+1135.37+1183.66C1139.39+1187.84+1146.04+1187.97+1150.22+1183.95C1154.4+1179.93+1154.53+1173.28+1150.51+1169.1ZM1148.35+1171.18C1151.22+1174.17+1151.12+1178.92+1148.14+1181.79C1145.15+1184.66+1140.4+1184.56+1137.53+1181.58C1134.66+1178.59+1134.76+1173.84+1137.74+1170.97C1140.73+1168.1+1145.48+1168.2+1148.35+1171.18Z" fill="#000000"/>
</g>
</g>
<g opacity="1">
<g>
<path stroke-linecap="round" stroke-width="3" stroke="#000000" d="M1095+1206.09C1094.74+1205.96+1075.64+1195.65+1075.64+1195.65" fill="none" stroke-linejoin="round"/>
<path d="M1112.82+1215.71C1115.57+1210.61+1113.67+1204.24+1108.56+1201.48C1103.46+1198.73+1097.09+1200.63+1094.34+1205.74C1091.58+1210.84+1093.49+1217.21+1098.59+1219.96C1103.7+1222.72+1110.07+1220.81+1112.82+1215.71ZM1110.18+1214.28C1108.21+1217.93+1103.66+1219.29+1100.02+1217.32C1096.37+1215.36+1095.01+1210.81+1096.98+1207.16C1098.94+1203.52+1103.49+1202.16+1107.14+1204.12C1110.78+1206.09+1112.15+1210.64+1110.18+1214.28Z" fill="#000000"/>
</g>
</g>
<g opacity="1">
<g>
<path stroke-linecap="round" stroke-width="3" stroke="#000000" d="M1067.5+1202.22C1069.85+1209.33+1089.63+1269.21+1089.63+1269.21" fill="none" stroke-linejoin="round"/>
<path d="M1061.15+1182.99C1055.64+1184.81+1052.65+1190.75+1054.47+1196.26C1056.29+1201.76+1062.23+1204.75+1067.74+1202.93C1073.24+1201.11+1076.23+1195.18+1074.41+1189.67C1072.59+1184.16+1066.66+1181.17+1061.15+1182.99ZM1062.09+1185.84C1066.02+1184.54+1070.26+1186.68+1071.56+1190.61C1072.86+1194.54+1070.73+1198.78+1066.79+1200.08C1062.86+1201.38+1058.62+1199.25+1057.32+1195.31C1056.02+1191.38+1058.16+1187.14+1062.09+1185.84Z" fill="#000000"/>
</g>
</g>
<g opacity="1">
<g>
<path stroke-linecap="round" stroke-width="3" stroke="#000000" d="M1107.84+1282.54C1106.65+1282.6+1120.86+1281.95+1120.86+1281.95" fill="none" stroke-linejoin="round"/>
<path d="M1087.61+1283.47C1087.87+1289.26+1092.78+1293.74+1098.57+1293.48C1104.37+1293.21+1108.85+1288.3+1108.59+1282.51C1108.32+1276.72+1103.41+1272.24+1097.62+1272.5C1091.82+1272.76+1087.34+1277.67+1087.61+1283.47ZM1090.6+1283.33C1090.42+1279.19+1093.62+1275.69+1097.75+1275.5C1101.89+1275.31+1105.4+1278.51+1105.59+1282.65C1105.78+1286.79+1102.58+1290.29+1098.44+1290.48C1094.3+1290.67+1090.79+1287.47+1090.6+1283.33Z" fill="#000000"/>
</g>
</g>
</g>
<g id="Globe" vectornator:layerName="Globe">
<path stroke="#000000" stroke-width="13.7049" d="M35.8962+996.956C35.8962+592.994+367.598+265.519+776.773+265.519C1185.95+265.519+1517.65+592.994+1517.65+996.956C1517.65+1400.92+1185.95+1728.39+776.773+1728.39C367.598+1728.39+35.8962+1400.92+35.8962+996.956Z" fill="none" stroke-linecap="butt" opacity="1" stroke-linejoin="round"/>
</g>
<g id="Text globe" vectornator:layerName="Text globe">
<text font-size="338" font-family="'GillSans'" transform="matrix(0.697793 0.681825 -0.699621 0.683618 418.017 -1112.35)" opacity="1" fill="#ffffff">
<textPath xlink:href="#TextPath" method="align" startOffset="0pt">
<![CDATA[COSIMA]]></textPath>
</text>
</g>
<g id="Text globe copy" vectornator:layerName="Text globe copy" visibility="hidden">
<text font-size="129" font-family="'GillSans'" transform="matrix(0.989406 -0.191211 0.19447 0.99452 -1250.52 86.7262)" opacity="1" fill="#000000">
<textPath xlink:href="#TextPath_2" method="align" startOffset="0pt">
<![CDATA[Consortium for Ocean-Sea Ice Modelling in Australia   ]]></textPath>
</text>
</g>
<g id="Text globe copy copy" vectornator:layerName="Text globe copy copy" visibility="hidden">
<text font-size="105" font-family="'GillSans'" transform="matrix(0.953165 -0.327049 0.330988 0.957776 -1357.87 377.598)" opacity="1" fill="#000000">
<textPath xlink:href="#TextPath_3" method="align" startOffset="0pt">
<![CDATA[CONSORTIUM FOR OCEAN-SEA ICE MODELLING IN AUSTRALIA ]]></textPath>
</text>
<g opacity="1">
<path d="M1548.47+1612.79L1548.47+1781.42C1436.04+1842.75+1306.24+1873.41+1159.07+1873.41C1039.49+1873.41+938.052+1849.39+854.755+1801.35C771.459+1753.32+705.537+1687.14+656.99+1602.82C608.443+1518.5+584.169+1427.29+584.169+1329.17C584.169+1173.31+639.743+1042.23+750.89+935.939C862.037+829.647+999.119+776.501+1162.13+776.501C1274.56+776.501+1399.5+805.884+1536.97+864.652L1536.97+1029.46C1411.77+957.913+1289.38+922.142+1169.8+922.142C1047.15+922.142+945.334+960.851+864.337+1038.27C783.34+1115.69+742.842+1212.66+742.842+1329.17C742.842+1446.7+782.701+1543.29+862.42+1618.92C942.14+1694.55+1044.09+1732.37+1168.27+1732.37C1298.07+1732.37+1424.8+1692.51+1548.47+1612.79Z" opacity="1" fill="#000000"/>
<path d="M1151.4+2577.85C1316.97+2577.85+1454.82+2630.23+1564.95+2734.99C1675.07+2839.75+1730.13+2971.08+1730.13+3128.99C1730.13+3286.89+1674.56+3417.59+1563.41+3521.07C1452.27+3624.55+1312.12+3676.29+1142.97+3676.29C981.488+3676.29+846.962+3624.55+739.392+3521.07C631.822+3417.59+578.037+3287.91+578.037+3132.05C578.037+2972.1+632.205+2839.75+740.542+2734.99C848.878+2630.23+985.832+2577.85+1151.4+2577.85ZM1157.54+2723.49C1034.89+2723.49+934.091+2761.82+855.138+2838.47C776.186+2915.12+736.709+3012.98+736.709+3132.05C736.709+3247.54+776.313+3343.62+855.522+3420.27C934.73+3496.92+1033.87+3535.25+1152.94+3535.25C1272.51+3535.25+1372.29+3496.16+1452.27+3417.97C1532.24+3339.78+1572.23+3242.43+1572.23+3125.92C1572.23+3012.47+1532.24+2917.04+1452.27+2839.62C1372.29+2762.2+1274.05+2723.49+1157.54+2723.49Z" opacity="1" fill="#000000"/>
<path d="M890.782+5017.72L774.269+4947.2C701.193+4902.74+649.197+4858.92+618.28+4815.74C587.363+4772.56+571.905+4722.86+571.905+4666.65C571.905+4582.33+601.161+4513.85+659.673+4461.22C718.185+4408.58+794.199+4382.27+887.716+4382.27C977.145+4382.27+1059.16+4407.31+1133.77+4457.39L1133.77+4631.39C1056.61+4557.29+973.568+4520.24+884.65+4520.24C834.57+4520.24+793.433+4531.87+761.238+4555.12C729.044+4578.37+712.947+4608.14+712.947+4644.42C712.947+4676.61+724.7+4706.76+748.207+4734.87C771.714+4762.98+809.785+4792.36+862.42+4823.02L979.7+4892.01C1110.52+4969.69+1175.93+5068.82+1175.93+5189.42C1175.93+5275.28+1147.19+5345.03+1089.7+5398.69C1032.21+5452.34+957.47+5479.17+865.487+5479.17C759.705+5479.17+663.378+5446.72+576.504+5381.82L576.504+5187.12C659.29+5291.88+755.106+5344.26+863.954+5344.26C911.99+5344.26+951.977+5330.85+983.916+5304.02C1015.85+5277.19+1031.82+5243.59+1031.82+5203.22C1031.82+5137.81+984.81+5075.98+890.782+5017.72Z" opacity="1" fill="#000000"/>
<path d="M627.095+6198.95L780.402+6198.95L780.402+7269.79L627.095+7269.79L627.095+6198.95Z" opacity="1" fill="#000000"/>
<path d="M1477.95+8001.83L1620.52+8001.83L1620.52+9072.67L1466.45+9072.67L1466.45+8239.45L1136.84+8653.38L1108.48+8653.38L775.802+8239.45L775.802+9072.67L622.496+9072.67L622.496+8001.83L766.604+8001.83L1123.04+8441.82L1477.95+8001.83Z" opacity="1" fill="#000000"/>
<path d="M967.435+9798.58L1075.52+9798.58L1554.6+10875.6L1397.46+10875.6L1254.88+10558.2L799.565+10558.2L664.655+10875.6L507.516+10875.6L967.435+9798.58ZM1192.03+10421.8L1019.56+10033.9L859.354+10421.8L1192.03+10421.8Z" opacity="1" fill="#000000"/>
</g>
</g>
</svg>
